<mxfile host="app.diagrams.net" modified="2023-09-30T00:35:20.355Z" agent="Mozilla/5.0 (Windows NT 10.0; Win64; x64) AppleWebKit/537.36 (KHTML, like Gecko) Chrome/117.0.0.0 Safari/537.36" version="21.8.2" etag="K0weCf-N9f-3Ar9k9CXo" type="github">
  <diagram name="Trang-1" id="yOnJUfNsiFfGZ9xs73k9">
    <mxGraphModel>
      <root>
        <mxCell id="0" />
        <mxCell id="1" parent="0" />
      </root>
    </mxGraphModel>
  </diagram>
</mxfile>
